 <svg version="1.0" xmlns="http://www.w3.org/2000/svg"  width="330.000000pt" height="331.000000pt" viewBox="0 0 300.000000 301.000000"  preserveAspectRatio="xMidYMid meet">  <g transform="translate(0.000000,301.000000) scale(0.100000,-0.100000)" fill="#111" stroke="none"> <path d="M1073 2177 c-23 -13 -143 -117 -210 -183 l-43 -41 0 -259 c0 -143 -1 -387 0 -544 l0 -285 26 -23 27 -23 376 3 c328 4 383 7 431 22 78 26 149 76 201 143 32 41 57 62 85 72 131 46 223 181 211 312 -6 73 -34 129 -95 191 l-45 47 45 49 c74 79 93 123 93 217 0 64 -5 89 -23 123 -49 92 -136 151 -261 178 -89 18 -785 20 -818 1z m819 -38 c72 -15 162 -64 193 -105 105 -138 54 -330 -109 -412 l-40 -19 36 -12 c93 -31 168 -140 168 -245 -1 -125 -79 -219 -220 -265 -22 -7 -40 -21 -47 -38 -35 -79 -134 -150 -241 -172 -33 -7 -189 -11 -416 -11 l-363 0 -1 538 -2 539 118 106 117 106 377 0 c240 1 396 -3 430 -10z"/> <path d="M1028 2038 c-48 -40 -87 -75 -87 -78 -1 -3 135 -4 301 -2 405 4 475 -8 574 -100 57 -52 83 -107 84 -170 0 -55 8 -58 60 -27 57 34 91 71 116 124 69 145 -27 284 -217 315 -35 5 -217 10 -405 10 l-340 0 -86 -72z m855 18 c116 -27 185 -107 174 -203 -5 -51 -49 -121 -87 -140 -24 -12 -26 -11 -43 42 -22 65 -100 156 -159 186 -80 41 -143 49 -413 53 -329 5 -298 2 -285 26 25 47 42 49 411 49 250 0 361 -4 402 -13z"/> <path d="M900 1682 l0 -234 95 88 95 87 0 143 0 143 -95 3 -95 3 0 -233z m138 186 c8 -8 12 -50 12 -122 l0 -109 -47 -44 c-26 -23 -51 -43 -55 -43 -5 0 -8 72 -8 159 0 144 2 160 18 164 34 9 68 7 80 -5z"/> <path d="M1130 1770 l0 -140 363 2 362 3 3 27 c5 46 -18 107 -55 149 -78 86 -134 99 -435 99 l-238 0 0 -140z m543 80 c31 -12 70 -33 86 -46 33 -28 69 -110 55 -124 -6 -6 -142 -10 -318 -10 -244 -1 -311 2 -317 12 -14 21 -11 172 4 187 9 10 60 11 222 8 184 -4 217 -8 268 -27z"/> <path d="M1461 1583 l-354 -3 -46 -43 c-25 -23 -61 -55 -80 -70 -18 -15 -32 -29 -30 -30 15 -8 690 11 717 21 52 17 118 59 141 88 21 27 27 46 14 42 -5 -2 -167 -4 -362 -5z m253 -39 c30 -12 16 -24 -55 -45 -65 -20 -96 -22 -324 -23 -139 0 -257 2 -261 6 -4 4 -1 15 7 24 32 39 65 43 346 44 149 0 278 -3 287 -6z"/> <path d="M1852 1535 c-34 -48 -90 -90 -148 -110 l-37 -12 54 -25 c98 -45 166 -132 177 -225 2 -24 6 -43 9 -43 20 0 107 57 135 89 63 68 73 146 32 229 -30 60 -71 95 -142 122 l-49 19 -31 -44z m127 -44 c62 -48 76 -76 76 -145 0 -53 -4 -68 -28 -99 -15 -20 -41 -44 -58 -52 -28 -15 -29 -15 -40 12 -29 71 -48 100 -98 150 l-53 53 63 60 c71 65 80 67 138 21z"/> <path d="M900 1160 l0 -231 95 82 95 82 0 148 0 149 -95 0 -95 0 0 -230z m139 185 c7 -4 11 -51 11 -119 l0 -113 -45 -42 c-24 -22 -49 -41 -55 -41 -6 0 -10 56 -10 155 0 151 1 156 22 164 24 8 60 7 77 -4z"/> <path d="M1130 1245 l0 -145 323 0 c177 0 339 3 361 7 l38 6 -4 53 c-8 90 -85 167 -206 204 -56 17 -93 20 -288 20 l-224 0 0 -145z m499 89 c31 -8 74 -28 96 -43 69 -47 109 -130 69 -145 -9 -3 -150 -6 -314 -6 -262 0 -299 2 -304 16 -3 9 -6 55 -6 104 0 84 1 89 23 92 63 10 384 -3 436 -18z"/> <path d="M1026 982 l-89 -77 289 -3 c159 -1 320 2 358 7 90 13 185 59 226 111 l32 40 -364 0 -363 -1 -89 -77z m714 27 c0 -5 -26 -22 -57 -37 -58 -27 -58 -27 -340 -30 -182 -3 -283 0 -283 6 0 5 16 24 35 41 l36 31 304 0 c207 0 305 -3 305 -11z"/> </g> </svg> 